<svg width="231" height="134" viewBox="0 0 231 134" fill="none" xmlns="http://www.w3.org/2000/svg">
<rect width="231" height="134" rx="20" fill="url(#paint0_linear_3_6)"/>
<path d="M24.7545 91.0215V86.7496L35.9137 73.3271C39.1304 69.5298 41.116 67.6048 41.116 65.416C41.1557 63.4778 39.6201 61.8561 37.661 61.8165C37.4889 61.8165 37.3168 61.8165 37.1447 61.8429C34.5767 61.8429 32.9617 63.491 32.697 66.2203H24C24.1588 59.0081 28.7258 53.9318 37.0388 53.9318C45.3519 53.9318 50.4748 58.9949 50.4748 65.0073C50.4748 68.6464 48.1715 71.5999 42.956 77.7837L38.0184 83.6642H50.7396V90.9952L24.7545 91.0215Z" fill="white"/>
<path d="M56.5905 91.0216V83.6906H65.7243V64.1767L57.1332 66.5895V58.7708L69.0469 54.657H74.4213V83.6906H82.9594V91.0216H56.5905Z" fill="white"/>
<path d="M90.6504 37.3581L89.9885 37.5031V91.0215H96.7925V36L95.76 36.2241L90.6504 37.3581Z" fill="white"/>
<path d="M109.514 55.9095L108.852 56.0545V91.0215H115.656V54.5514L114.623 54.7756L109.514 55.9095Z" fill="white"/>
<path d="M115.656 52.3628V44.7286H108.852V53.8527L109.884 53.6286L115.656 52.3628Z" fill="white"/>
<path d="M154.997 54.7624L154.759 55.2503L142.157 81.6996L129.555 55.2503L129.317 54.7624H121.957L122.539 55.9622L139.06 90.5336L139.298 91.0215H145.096L145.321 90.5336L161.854 55.9622L162.437 54.7624H154.997Z" fill="white"/>
<path d="M171.16 75.7531H200.613L200.706 75.0016C200.772 74.25 200.799 73.4985 200.786 72.7469C200.706 61.8033 193.24 53.8659 183.034 53.8659C172.802 53.6681 164.343 61.7769 164.158 71.969C164.158 72.2855 164.158 72.6019 164.158 72.9184C164.158 73.8809 164.237 74.8302 164.369 75.7795L171.16 75.7531ZM182.889 59.931C188.819 59.931 192.936 63.7811 193.809 70.0572H171.173C172.127 64.915 175.992 59.9706 182.849 59.9706L182.889 59.931Z" fill="#00C899"/>
<path d="M192.658 80.7107L192.486 81.0535C191.043 84.0861 187.561 85.8924 183.22 85.8924C179.182 86.0375 175.357 84.0729 173.119 80.7107H165.746C168.658 87.6593 175.515 92.129 183.074 91.9972C191.016 91.9972 197.503 87.9493 199.647 81.6996L199.991 80.7107H192.658Z" fill="#00C899"/>
<path d="M208 85.4046H202.321V91.061H208V85.4046Z" fill="#00C899"/>
<defs>
<linearGradient id="paint0_linear_3_6" x1="-1.98516" y1="134" x2="243.446" y2="29.1277" gradientUnits="userSpaceOnUse">
<stop stop-color="#00C49A"/>
<stop offset="0.885417" stop-color="#0046B5"/>
</linearGradient>
</defs>
</svg>
