<svg xmlns="http://www.w3.org/2000/svg" version="1.1" xmlns:xlink="http://www.w3.org/1999/xlink" xmlns:svgjs="http://svgjs.com/svgjs" width="780" height="840" preserveAspectRatio="none" viewBox="0 0 780 840">
    <g mask="url(&quot;#SvgjsMask1009&quot;)" fill="none">
        <rect width="780" height="840" x="0" y="0" fill="#0e2a47"></rect>
        <path d="M619.4003226023981 518.9686176044573L622.9100868288349 720.0428754700243 823.9843446944019 716.5331112435875 820.4745804679651 515.4588533780205z" fill="rgba(28, 83, 142, 0.4)" class="triangle-float1"></path>
        <path d="M280.27450410120383 521.8217613837221L275.75293470915227 392.3409550366539 83.79250988457588 463.86371229826534z" fill="rgba(28, 83, 142, 0.4)" class="triangle-float1"></path>
        <path d="M641.303,394.606C665.159,392.947,679.692,371.395,691.988,350.884C704.812,329.493,720.854,304.489,708.218,282.987C695.659,261.615,666.003,262.54,641.303,264.633C620.926,266.36,603.07,276.004,591.514,292.876C577.854,312.818,566.107,337.189,576.733,358.9C588.321,382.577,615.006,396.435,641.303,394.606" fill="rgba(28, 83, 142, 0.4)" class="triangle-float1"></path>
        <path d="M649.176,917.089C714.797,919.618,773.733,877.842,805.473,820.352C836.173,764.747,835.367,695.854,800.705,642.628C768.764,593.58,707.704,579.727,649.176,580.345C591.993,580.949,532.437,596.69,503.093,645.773C473.109,695.926,484.74,757.609,512.441,809.058C541.956,863.875,586.964,914.691,649.176,917.089" fill="rgba(28, 83, 142, 0.4)" class="triangle-float3"></path>
        <path d="M529.8537806757191 92.86794237680058L462.40563628114194 205.1205052153105 664.5085527361954 250.1664403879213z" fill="rgba(28, 83, 142, 0.4)" class="triangle-float1"></path>
        <path d="M292.5556875660188 651.3981383793076L463.6546993954428 636.4289145037451 448.6854755198802 465.32990267432103 277.5864636904562 480.2991265498836z" fill="rgba(28, 83, 142, 0.4)" class="triangle-float3"></path>
        <path d="M64.87546868875884 828.5592179653746L228.77355154134864 992.4573008179643 392.67163439393835 828.5592179653745 228.77355154134855 664.6611351127848z" fill="rgba(28, 83, 142, 0.4)" class="triangle-float2"></path>
        <path d="M642.131227997254 300.7805122154571L809.7840333113996 243.05302190032046 752.056542996263 75.40021658617479 584.4037376821173 133.12770690131146z" fill="rgba(28, 83, 142, 0.4)" class="triangle-float3"></path>
        <path d="M555.9623448138084 651.5406914343658L440.3696471012248 595.1623657596963 499.5840191391389 767.1333891469494z" fill="rgba(28, 83, 142, 0.4)" class="triangle-float3"></path>
    </g>
    <defs>
        <mask id="SvgjsMask1009">
            <rect width="780" height="840" fill="#ffffff"></rect>
        </mask>
        <style>
            @keyframes float1 {
                0%{transform: translate(0, 0)}
                50%{transform: translate(-10px, 0)}
                100%{transform: translate(0, 0)}
            }

            .triangle-float1 {
                animation: float1 5s infinite;
            }

            @keyframes float2 {
                0%{transform: translate(0, 0)}
                50%{transform: translate(-5px, -5px)}
                100%{transform: translate(0, 0)}
            }

            .triangle-float2 {
                animation: float2 4s infinite;
            }

            @keyframes float3 {
                0%{transform: translate(0, 0)}
                50%{transform: translate(0, -10px)}
                100%{transform: translate(0, 0)}
            }

            .triangle-float3 {
                animation: float3 6s infinite;
            }
        </style>
    </defs>
</svg>